<svg width="1200" height="630" viewBox="0 0 1200 630" fill="none" xmlns="http://www.w3.org/2000/svg">
  <defs>
    <linearGradient id="curveGradient" x1="0%" y1="0%" x2="100%" y2="0%">
      <stop offset="0%" stop-color="#00d395"/>
      <stop offset="35%" stop-color="#00d395"/>
      <stop offset="50%" stop-color="#ef4444"/>
      <stop offset="65%" stop-color="#00d395"/>
      <stop offset="100%" stop-color="#00d395"/>
    </linearGradient>
  </defs>

  <!-- Background -->
  <rect width="1200" height="630" fill="#0a0a0a"/>

  <!-- Subtle Nansen green accent line at top -->
  <rect x="0" y="0" width="1200" height="4" fill="#00d395"/>

  <!-- Title -->
  <text x="600" y="70" text-anchor="middle" font-family="Arial, Helvetica, sans-serif" font-size="52" font-weight="bold" fill="white">Am I Smart Money?</text>
  <text x="600" y="105" text-anchor="middle" font-family="Arial, Helvetica, sans-serif" font-size="22" fill="#00d395">Find out if you're the alpha or the exit liquidity</text>

  <!-- Bell Curve -->
  <path d="M 50 520
           C 100 520, 150 518, 200 510
           C 300 490, 400 420, 500 300
           C 550 230, 580 180, 600 160
           C 620 180, 650 230, 700 300
           C 800 420, 900 490, 1000 510
           C 1050 518, 1100 520, 1150 520"
        stroke="url(#curveGradient)" stroke-width="6" fill="none"/>

  <!-- Curve fill -->
  <path d="M 50 520
           C 100 520, 150 518, 200 510
           C 300 490, 400 420, 500 300
           C 550 230, 580 180, 600 160
           C 620 180, 650 230, 700 300
           C 800 420, 900 490, 1000 510
           C 1050 518, 1100 520, 1150 520
           L 1150 521 L 50 521 Z"
        fill="url(#curveGradient)" opacity="0.1"/>

  <!-- LEFT WOJAK - Smug/Confident (Smart Money) -->
  <g transform="translate(120, 340)">
    <!-- Head -->
    <ellipse cx="0" cy="0" rx="55" ry="60" fill="#f5deb3"/>
    <!-- Smug eyes - half closed -->
    <ellipse cx="-18" cy="-8" rx="12" ry="6" fill="#0a0a0a"/>
    <ellipse cx="18" cy="-8" rx="12" ry="6" fill="#0a0a0a"/>
    <!-- Eyebrows - raised smugly -->
    <path d="M -32 -22 Q -18 -30 -4 -22" stroke="#0a0a0a" stroke-width="3" fill="none"/>
    <path d="M 4 -22 Q 18 -30 32 -22" stroke="#0a0a0a" stroke-width="3" fill="none"/>
    <!-- Smug smile -->
    <path d="M -20 18 Q 0 35 20 18" stroke="#0a0a0a" stroke-width="3" fill="none"/>
    <!-- Slight blush -->
    <ellipse cx="-30" cy="8" rx="10" ry="6" fill="#ffb6c1" opacity="0.4"/>
    <ellipse cx="30" cy="8" rx="10" ry="6" fill="#ffb6c1" opacity="0.4"/>
  </g>
  <text x="120" y="440" text-anchor="middle" font-family="Arial, Helvetica, sans-serif" font-size="18" font-weight="bold" fill="#00d395">SMART MONEY</text>
  <text x="120" y="465" text-anchor="middle" font-family="Arial, Helvetica, sans-serif" font-size="14" fill="#888">"I am the alpha"</text>

  <!-- MIDDLE WOJAK - Crying/Distressed (Exit Liquidity) -->
  <g transform="translate(600, 240)">
    <!-- Head -->
    <ellipse cx="0" cy="0" rx="50" ry="55" fill="#f5deb3"/>
    <!-- Worried eyes - wide open -->
    <ellipse cx="-15" cy="-5" rx="10" ry="12" fill="white"/>
    <ellipse cx="15" cy="-5" rx="10" ry="12" fill="white"/>
    <ellipse cx="-15" cy="-3" rx="5" ry="6" fill="#0a0a0a"/>
    <ellipse cx="15" cy="-3" rx="5" ry="6" fill="#0a0a0a"/>
    <!-- Worried eyebrows -->
    <path d="M -28 -22 Q -15 -28 -4 -18" stroke="#0a0a0a" stroke-width="2.5" fill="none"/>
    <path d="M 4 -18 Q 15 -28 28 -22" stroke="#0a0a0a" stroke-width="2.5" fill="none"/>
    <!-- Frown / worried mouth -->
    <path d="M -15 20 Q 0 12 15 20" stroke="#0a0a0a" stroke-width="3" fill="none"/>
    <!-- Tears -->
    <path d="M -22 5 Q -28 20 -24 35" stroke="#5dadec" stroke-width="4" fill="none" opacity="0.8"/>
    <path d="M 22 5 Q 28 20 24 35" stroke="#5dadec" stroke-width="4" fill="none" opacity="0.8"/>
    <!-- Sweat drop -->
    <ellipse cx="35" cy="-15" rx="6" ry="8" fill="#5dadec" opacity="0.6"/>
  </g>
  <text x="600" y="340" text-anchor="middle" font-family="Arial, Helvetica, sans-serif" font-size="18" font-weight="bold" fill="#ef4444">EXIT LIQUIDITY</text>
  <text x="600" y="365" text-anchor="middle" font-family="Arial, Helvetica, sans-serif" font-size="14" fill="#888">"Why is it dumping?"</text>

  <!-- RIGHT WOJAK - Clown (NGMI) -->
  <g transform="translate(1080, 340)">
    <!-- Head -->
    <ellipse cx="0" cy="0" rx="55" ry="60" fill="#f5deb3"/>
    <!-- Clown hair - rainbow puffs -->
    <circle cx="-45" cy="-35" r="18" fill="#ef4444"/>
    <circle cx="-25" cy="-50" r="16" fill="#fbbf24"/>
    <circle cx="0" cy="-55" r="18" fill="#22c55e"/>
    <circle cx="25" cy="-50" r="16" fill="#3b82f6"/>
    <circle cx="45" cy="-35" r="18" fill="#a855f7"/>
    <!-- Eyes - derpy/happy -->
    <ellipse cx="-18" cy="-5" rx="10" ry="10" fill="white"/>
    <ellipse cx="18" cy="-5" rx="10" ry="10" fill="white"/>
    <ellipse cx="-15" cy="-3" rx="5" ry="5" fill="#0a0a0a"/>
    <ellipse cx="21" cy="-3" rx="5" ry="5" fill="#0a0a0a"/>
    <!-- Clown nose -->
    <circle cx="0" cy="8" r="14" fill="#ef4444"/>
    <!-- Big smile -->
    <path d="M -25 22 Q 0 45 25 22" stroke="#0a0a0a" stroke-width="3" fill="none"/>
    <!-- Rosy cheeks -->
    <ellipse cx="-32" cy="12" rx="10" ry="8" fill="#ff6b6b" opacity="0.5"/>
    <ellipse cx="32" cy="12" rx="10" ry="8" fill="#ff6b6b" opacity="0.5"/>
  </g>
  <text x="1080" y="440" text-anchor="middle" font-family="Arial, Helvetica, sans-serif" font-size="18" font-weight="bold" fill="#ef4444">NGMI</text>
  <text x="1080" y="465" text-anchor="middle" font-family="Arial, Helvetica, sans-serif" font-size="14" fill="#888">"It's going back up"</text>

  <!-- YOU marker -->
  <g transform="translate(220, 460)">
    <rect x="-35" y="-18" width="70" height="32" rx="16" fill="#00d395"/>
    <text x="0" y="6" text-anchor="middle" font-family="Arial, Helvetica, sans-serif" font-size="18" font-weight="bold" fill="#0a0a0a">YOU?</text>
    <polygon points="0,14 -10,28 10,28" fill="#00d395"/>
  </g>

  <!-- X axis labels -->
  <text x="100" y="560" text-anchor="middle" font-family="Arial, Helvetica, sans-serif" font-size="16" fill="#555">Buys before</text>
  <text x="100" y="580" text-anchor="middle" font-family="Arial, Helvetica, sans-serif" font-size="16" fill="#555">the pump</text>

  <text x="600" y="570" text-anchor="middle" font-family="Arial, Helvetica, sans-serif" font-size="16" fill="#555">Buys the top</text>

  <text x="1100" y="560" text-anchor="middle" font-family="Arial, Helvetica, sans-serif" font-size="16" fill="#555">Buys after</text>
  <text x="1100" y="580" text-anchor="middle" font-family="Arial, Helvetica, sans-serif" font-size="16" fill="#555">-90% crash</text>

  <!-- Nansen branding -->
  <rect x="0" y="626" width="1200" height="4" fill="#00d395"/>
</svg>
