<svg width="1200" height="630" viewBox="0 0 1200 630" fill="none" xmlns="http://www.w3.org/2000/svg">
  <!-- Background - clean dark -->
  <rect width="1200" height="630" fill="#0d0d0d"/>

  <!-- Title -->
  <text x="600" y="55" text-anchor="middle" font-family="Impact, Arial Black, sans-serif" font-size="48" fill="white" letter-spacing="2">AM I SMART MONEY?</text>

  <!-- Bell Curve - thick black outline style like the meme -->
  <path d="M 80 480
           Q 150 480, 200 475
           Q 300 460, 380 400
           Q 480 300, 550 200
           Q 590 140, 600 120
           Q 610 140, 650 200
           Q 720 300, 820 400
           Q 900 460, 1000 475
           Q 1050 480, 1120 480"
        stroke="#00d395" stroke-width="5" fill="none"/>

  <!-- Curve area fill -->
  <path d="M 80 480
           Q 150 480, 200 475
           Q 300 460, 380 400
           Q 480 300, 550 200
           Q 590 140, 600 120
           Q 610 140, 650 200
           Q 720 300, 820 400
           Q 900 460, 1000 475
           Q 1050 480, 1120 480
           L 1120 482 L 80 482 Z"
        fill="#00d395" opacity="0.15"/>

  <!-- LEFT - SMUG WOJAK (Smart Money) -->
  <g transform="translate(160, 360)">
    <!-- Head shape - classic wojak proportions -->
    <ellipse cx="0" cy="0" rx="52" ry="58" fill="#f0e0c0" stroke="#000" stroke-width="2.5"/>
    <!-- Hair line -->
    <path d="M -40 -35 Q -30 -50, 0 -55 Q 30 -50, 40 -35" stroke="#000" stroke-width="2" fill="none"/>
    <!-- Smug half-closed eyes -->
    <line x1="-25" y1="-8" x2="-8" y2="-8" stroke="#000" stroke-width="3"/>
    <line x1="8" y1="-8" x2="25" y2="-8" stroke="#000" stroke-width="3"/>
    <!-- Raised eyebrows -->
    <path d="M -28 -18 L -8 -22" stroke="#000" stroke-width="2.5" fill="none"/>
    <path d="M 8 -22 L 28 -18" stroke="#000" stroke-width="2.5" fill="none"/>
    <!-- Smug smile -->
    <path d="M -18 20 Q 0 32, 18 20" stroke="#000" stroke-width="2.5" fill="none"/>
    <!-- Nose -->
    <path d="M 0 0 L 3 10 L -2 10" stroke="#000" stroke-width="1.5" fill="none"/>
  </g>
  <!-- Label -->
  <text x="160" y="455" text-anchor="middle" font-family="Arial Black, sans-serif" font-size="16" font-weight="bold" fill="#00d395">SMART MONEY</text>
  <text x="160" y="478" text-anchor="middle" font-family="Arial, sans-serif" font-size="13" fill="#666" font-style="italic">"i am the alpha"</text>

  <!-- MIDDLE - CRYING WOJAK (Exit Liquidity / Midwit) -->
  <g transform="translate(600, 220)">
    <!-- Head -->
    <ellipse cx="0" cy="0" rx="48" ry="54" fill="#f0e0c0" stroke="#000" stroke-width="2.5"/>
    <!-- Messy stressed hair -->
    <path d="M -38 -32 Q -25 -52, -10 -48 Q 0 -55, 10 -48 Q 25 -52, 38 -32" stroke="#000" stroke-width="2" fill="none"/>
    <!-- Big worried eyes with highlights -->
    <ellipse cx="-16" cy="-6" rx="11" ry="13" fill="white" stroke="#000" stroke-width="2"/>
    <ellipse cx="16" cy="-6" rx="11" ry="13" fill="white" stroke="#000" stroke-width="2"/>
    <!-- Pupils looking up/worried -->
    <circle cx="-16" cy="-9" r="5" fill="#000"/>
    <circle cx="16" cy="-9" r="5" fill="#000"/>
    <!-- Worried eyebrows -->
    <path d="M -30 -24 Q -16 -30, -5 -20" stroke="#000" stroke-width="2.5" fill="none"/>
    <path d="M 5 -20 Q 16 -30, 30 -24" stroke="#000" stroke-width="2.5" fill="none"/>
    <!-- Open frown mouth -->
    <ellipse cx="0" cy="24" rx="12" ry="8" fill="#000"/>
    <!-- Nose -->
    <path d="M 0 2 L 2 10 L -2 10" stroke="#000" stroke-width="1.5" fill="none"/>
    <!-- TEARS - streaming down -->
    <path d="M -24 2 Q -30 25, -26 50" stroke="#5ba4d4" stroke-width="6" fill="none" stroke-linecap="round"/>
    <path d="M 24 2 Q 30 25, 26 50" stroke="#5ba4d4" stroke-width="6" fill="none" stroke-linecap="round"/>
    <!-- More tears -->
    <path d="M -20 8 Q -24 30, -20 48" stroke="#5ba4d4" stroke-width="4" fill="none" stroke-linecap="round" opacity="0.7"/>
    <path d="M 20 8 Q 24 30, 20 48" stroke="#5ba4d4" stroke-width="4" fill="none" stroke-linecap="round" opacity="0.7"/>
  </g>
  <!-- Label -->
  <text x="600" y="310" text-anchor="middle" font-family="Arial Black, sans-serif" font-size="16" font-weight="bold" fill="#ef4444">EXIT LIQUIDITY</text>
  <text x="600" y="333" text-anchor="middle" font-family="Arial, sans-serif" font-size="13" fill="#666" font-style="italic">"why is it dumping??"</text>

  <!-- RIGHT - CLOWN WOJAK (NGMI) -->
  <g transform="translate(1040, 360)">
    <!-- Head -->
    <ellipse cx="0" cy="0" rx="52" ry="58" fill="#f0e0c0" stroke="#000" stroke-width="2.5"/>
    <!-- Rainbow clown wig -->
    <ellipse cx="-42" cy="-28" rx="20" ry="18" fill="#ff4444"/>
    <ellipse cx="-20" cy="-45" rx="18" ry="16" fill="#ff9922"/>
    <ellipse cx="5" cy="-52" rx="20" ry="17" fill="#44dd44"/>
    <ellipse cx="30" cy="-42" rx="18" ry="16" fill="#4488ff"/>
    <ellipse cx="48" cy="-24" rx="18" ry="17" fill="#aa44ff"/>
    <!-- Derpy eyes - looking different directions -->
    <ellipse cx="-16" cy="-6" rx="12" ry="12" fill="white" stroke="#000" stroke-width="2"/>
    <ellipse cx="18" cy="-6" rx="12" ry="12" fill="white" stroke="#000" stroke-width="2"/>
    <!-- Derpy pupils -->
    <circle cx="-20" cy="-4" r="5" fill="#000"/>
    <circle cx="22" cy="-8" r="5" fill="#000"/>
    <!-- Eyebrows - clueless -->
    <path d="M -30 -22 Q -16 -20, -5 -22" stroke="#000" stroke-width="2" fill="none"/>
    <path d="M 5 -22 Q 18 -20, 32 -22" stroke="#000" stroke-width="2" fill="none"/>
    <!-- Big red clown nose -->
    <circle cx="0" cy="8" r="14" fill="#ff2222" stroke="#000" stroke-width="2"/>
    <!-- Big dumb smile -->
    <path d="M -22 22 Q 0 42, 22 22" stroke="#000" stroke-width="3" fill="none"/>
    <!-- Blush circles -->
    <ellipse cx="-32" cy="12" rx="10" ry="7" fill="#ffaaaa" opacity="0.6"/>
    <ellipse cx="32" cy="12" rx="10" ry="7" fill="#ffaaaa" opacity="0.6"/>
  </g>
  <!-- Label -->
  <text x="1040" y="455" text-anchor="middle" font-family="Arial Black, sans-serif" font-size="16" font-weight="bold" fill="#ef4444">NGMI</text>
  <text x="1040" y="478" text-anchor="middle" font-family="Arial, sans-serif" font-size="13" fill="#666" font-style="italic">"it's going back up"</text>

  <!-- YOU marker with arrow -->
  <g transform="translate(250, 430)">
    <rect x="-32" y="0" width="64" height="28" rx="14" fill="#00d395"/>
    <text x="0" y="20" text-anchor="middle" font-family="Arial Black, sans-serif" font-size="15" font-weight="bold" fill="#000">YOU?</text>
    <polygon points="0,28 -8,42 8,42" fill="#00d395"/>
  </g>

  <!-- Bottom labels -->
  <text x="160" y="520" text-anchor="middle" font-family="Arial, sans-serif" font-size="14" fill="#444">Buys before pump</text>
  <text x="600" y="520" text-anchor="middle" font-family="Arial, sans-serif" font-size="14" fill="#444">Buys the top</text>
  <text x="1040" y="520" text-anchor="middle" font-family="Arial, sans-serif" font-size="14" fill="#444">Buys after -90%</text>

  <!-- Axis line -->
  <line x1="60" y1="485" x2="1140" y2="485" stroke="#333" stroke-width="2"/>

  <!-- Nansen accent -->
  <rect x="0" y="0" width="1200" height="3" fill="#00d395"/>
  <rect x="0" y="627" width="1200" height="3" fill="#00d395"/>

  <!-- Tagline -->
  <text x="600" y="580" text-anchor="middle" font-family="Arial, sans-serif" font-size="18" fill="#00d395">Paste your wallet. Face the truth.</text>
  <text x="600" y="605" text-anchor="middle" font-family="Arial, sans-serif" font-size="14" fill="#555">ingridsia.github.io/am-i-smart-money</text>
</svg>
