<svg width="1200" height="630" viewBox="0 0 1200 630" xmlns="http://www.w3.org/2000/svg">
  <defs>
    <linearGradient id="curveGradient" x1="0%" y1="0%" x2="100%" y2="0%">
      <stop offset="0%" stop-color="#00FFA7"/>
      <stop offset="25%" stop-color="#a3e635"/>
      <stop offset="40%" stop-color="#fbbf24"/>
      <stop offset="50%" stop-color="#f97316"/>
      <stop offset="55%" stop-color="#ef4444"/>
      <stop offset="60%" stop-color="#f97316"/>
      <stop offset="75%" stop-color="#fbbf24"/>
      <stop offset="85%" stop-color="#a3e635"/>
      <stop offset="100%" stop-color="#00FFA7"/>
    </linearGradient>
  </defs>

  <!-- Background -->
  <rect width="1200" height="630" fill="#0a0a0a"/>

  <!-- Tier Badge -->
  <rect x="540" y="40" width="160" height="50" rx="25" fill="#fbbf24"/>
  <text x="600" y="75" text-anchor="middle" font-family="Arial, sans-serif" font-size="24" font-weight="bold" fill="#0a0a0a">DEGEN</text>

  <!-- Description -->
  <text x="600" y="140" text-anchor="middle" font-family="Arial, sans-serif" font-size="26" fill="white">50/50 win rate but 100% degen energy. You've aped more rugs </text>
  <text x="600" y="175" text-anchor="middle" font-family="Arial, sans-serif" font-size="26" fill="white">than most have trades.</text>

  <!-- YOU marker -->
  <rect x="353" y="115.91089329029836" width="70" height="36" rx="18" fill="#fbbf24"/>
  <text x="388" y="140.91089329029836" text-anchor="middle" font-family="Arial, sans-serif" font-size="18" font-weight="bold" fill="#0a0a0a">YOU</text>
  <polygon points="388,151.91089329029836 378,165.91089329029836 398,165.91089329029836" fill="#fbbf24"/>

  <!-- Bell Curve -->
  <path d="M 100 520 C 150 520, 200 515, 280 490 C 380 450, 480 350, 550 280 C 600 230, 620 200, 650 200 C 680 200, 700 230, 750 280 C 820 350, 920 450, 1020 490 C 1100 515, 1050 520, 1100 520"
        fill="none" stroke="url(#curveGradient)" stroke-width="5"/>

  <!-- Curve fill -->
  <path d="M 100 520 C 150 520, 200 515, 280 490 C 380 450, 480 350, 550 280 C 600 230, 620 200, 650 200 C 680 200, 700 230, 750 280 C 820 350, 920 450, 1020 490 C 1100 515, 1050 520, 1100 520 L 1100 540 L 100 540 Z"
        fill="url(#curveGradient)" opacity="0.2"/>

  <!-- Emojis as text (will be rendered by sharp) -->
  <text x="180" y="480" text-anchor="middle" font-size="50">💀</text>
  <text x="650" y="320" text-anchor="middle" font-size="45">😌</text>
  <text x="1020" y="480" text-anchor="middle" font-size="50">🤓</text>

  <!-- Labels -->
  <text x="180" y="570" text-anchor="middle" font-family="Arial, sans-serif" font-size="18" fill="#666">NGMI</text>
  <text x="650" y="570" text-anchor="middle" font-family="Arial, sans-serif" font-size="18" fill="#666">Avg</text>
  <text x="1020" y="570" text-anchor="middle" font-family="Arial, sans-serif" font-size="18" fill="#666">Smart Money</text>

  <!-- Bottom accent -->
  <rect x="0" y="625" width="1200" height="5" fill="#00FFA7"/>
</svg>